<svg width="500" height="500" viewBox="0 0 500 500" fill="none" xmlns="http://www.w3.org/2000/svg">
<g opacity="0.41">
<path d="M28.813 302.943C28 295.355 27.811 287.698 28.273 280.082C30.442 244.299 46.64 209.806 71.766 184.742C80.73 175.8 91.032 167.669 96.583 156.199C105.932 136.883 104.073 115.351 115.914 96.14C127.768 76.907 145.672 61.449 166.307 52.903C227.832 27.425 317.324 58.853 313.282 136.317C313.267 136.595 313.257 136.998 313.249 137.509C313 153.569 325.975 166.372 341.652 165.921C399.509 164.257 451.526 207.108 465.051 264.164C473.749 300.857 464.572 342.068 439.333 369.69C420.493 390.309 394.44 402.469 368.206 411.266C315.606 428.905 259.63 434.985 204.348 432.238C152.601 429.666 97.54 417.435 62.222 378.761C43.381 358.132 31.822 331.007 28.813 302.943Z" fill="#E1E2FE"/>
</g>
<g opacity="0.31">
<path d="M319.223 47.9104C319.378 40.5704 313.676 34.4971 306.488 34.3454C299.299 34.1937 293.346 40.0209 293.191 47.361C293.036 54.7011 298.738 60.7743 305.927 60.926C313.115 61.0778 319.069 55.2505 319.223 47.9104Z" fill="#E1E2FE"/>
</g>
<g opacity="0.31">
<path d="M85.6179 47.999C85.8069 51.782 88.9639 54.689 92.6689 54.493C96.3739 54.297 99.2249 51.071 99.0349 47.288C98.8459 43.505 95.6889 40.598 91.9839 40.794C88.2789 40.99 85.4279 44.216 85.6179 47.999Z" fill="#E1E2FE"/>
</g>
<g opacity="0.31">
<path d="M472.092 202.99C472.217 205.494 474.307 207.418 476.759 207.288C479.212 207.158 481.098 205.023 480.973 202.519C480.848 200.015 478.758 198.091 476.305 198.22C473.854 198.351 471.967 200.486 472.092 202.99Z" fill="#E1E2FE"/>
</g>
<g opacity="0.31">
<path d="M451.355 431.835C451.596 420.279 442.618 410.719 431.3 410.483C419.983 410.246 410.613 419.422 410.371 430.978C410.129 442.534 419.108 452.094 430.425 452.33C441.743 452.567 451.113 443.391 451.355 431.835Z" fill="#E1E2FE"/>
</g>
<path opacity="0.47" d="M25.7208 98.01C19.3048 86.714 23.0778 72.239 34.1458 65.679C45.2148 59.119 67.0789 58.399 73.4939 69.695C79.9099 80.991 62.9138 91.877 56.3208 103.078C47.1278 118.699 32.1358 109.305 25.7208 98.01Z" fill="#ECF1F7"/>
<path opacity="0.47" d="M93.2577 452.053C85.3047 457.91 74.2137 456.079 68.4847 447.964C62.7557 439.849 60.5777 422.885 68.5307 417.028C76.4837 411.171 85.8877 423.569 94.7457 427.845C107.1 433.809 101.211 446.196 93.2577 452.053Z" fill="#E1E2FE"/>
<path opacity="0.47" d="M408.43 24.33C417.047 15.274 431.216 15.058 440.078 23.848C448.94 32.638 455.296 53.212 446.68 62.269C438.063 71.325 423.715 58.042 411.793 54.72C395.165 50.088 399.813 33.387 408.43 24.33Z" fill="#E1E2FE"/>
<path opacity="0.32" d="M45.0177 148.177C39.1997 164.936 37.6117 183.246 41.3787 200.569C46.4427 223.861 63.8877 244.336 60.9137 269.178C59.1287 284.085 59.4467 297.749 59.0877 312.395C58.3497 342.469 79.3627 367.366 104.014 379.827C124.035 389.948 146.8 392.617 168.775 390.683C188.553 388.942 208.029 383.75 226.829 377.314C244.946 371.112 262.532 363.405 282.067 363.982C298.313 364.462 313.378 370.501 328.796 374.694C365.607 384.705 409.155 383.281 440.442 361.586C474.737 337.804 488.589 292.677 476.605 253.241C470.177 232.089 461.595 213.755 464.699 191.218C466.226 180.132 468.504 168.848 466.401 157.856C464.466 147.74 458.92 138.637 452.342 130.712C434.606 109.342 409.358 95.716 383.111 87.699C353.336 78.604 320.278 73.646 289.316 78.355C229.172 87.502 216.084 78.606 153.213 69.68C111.096 63.7 71.5617 97.187 52.3677 131.734C49.4587 136.969 46.9937 142.484 45.0177 148.177Z" fill="#E1E2FE"/>
<g opacity="0.83">
<path opacity="0.81" d="M74.1267 196.575C82.7897 185.145 96.1807 177.382 102.742 164.248C110.597 148.524 108.942 129.966 115.957 113.902C126.323 90.165 145.098 70.003 168.608 58.931C179.939 53.595 192.374 50.349 204.504 51.28C223.204 52.714 239.334 63.846 251.948 77.141C270.721 96.927 283.995 125.028 306.525 140.882C318.958 149.63 333.569 140.349 346.741 137.405C361.639 134.076 377.118 134.857 391.348 138.908C417.557 146.369 440.128 165.143 451.416 189.9C463.467 216.331 461.754 252.872 439.134 275.596C428.669 286.109 414.478 293.135 406.712 305.727C396.966 321.53 395.823 342.89 393.102 360.461C390.097 379.866 381.803 398.77 369.338 414.456C369.197 414.634 369.055 414.811 368.912 414.988C347.255 441.911 310.294 450.99 279.136 437.491C279.136 437.491 212.842 408.77 212.84 408.769C145.572 379.626 94.5037 332.664 69.9867 264.605C64.6817 249.877 62.7537 218.479 69.5137 204.102C70.7907 201.389 72.3607 198.906 74.1267 196.575Z" fill="#E1E2FE"/>
</g>
<path opacity="0.58" d="M384.065 437.37C386.55 437.37 388.565 435.355 388.565 432.87C388.565 430.385 386.55 428.37 384.065 428.37C381.58 428.37 379.565 430.385 379.565 432.87C379.565 435.355 381.58 437.37 384.065 437.37Z" fill="#3E479B"/>
<path opacity="0.58" d="M270.185 39.861C271.428 39.861 272.435 38.8536 272.435 37.611C272.435 36.3684 271.428 35.361 270.185 35.361C268.942 35.361 267.935 36.3684 267.935 37.611C267.935 38.8536 268.942 39.861 270.185 39.861Z" fill="#3E479B"/>
<path opacity="0.58" d="M131.316 448.176C133.801 448.176 135.816 446.161 135.816 443.676C135.816 441.191 133.801 439.176 131.316 439.176C128.831 439.176 126.816 441.191 126.816 443.676C126.816 446.161 128.831 448.176 131.316 448.176Z" fill="#3E479B"/>
<path opacity="0.58" d="M402.395 467.469C404.328 467.469 405.895 465.902 405.895 463.969C405.895 462.036 404.328 460.469 402.395 460.469C400.462 460.469 398.895 462.036 398.895 463.969C398.895 465.902 400.462 467.469 402.395 467.469Z" fill="#EF929C"/>
<path opacity="0.58" d="M58.0591 42.284C58.8875 42.284 59.5591 41.6124 59.5591 40.784C59.5591 39.9556 58.8875 39.284 58.0591 39.284C57.2307 39.284 56.5591 39.9556 56.5591 40.784C56.5591 41.6124 57.2307 42.284 58.0591 42.284Z" fill="#3E479B"/>
<path opacity="0.58" d="M469.043 83.1792C470.396 80.5191 469.337 77.2656 466.676 75.9124C464.016 74.5593 460.763 75.6187 459.41 78.2789C458.056 80.939 459.116 84.1924 461.776 85.5456C464.436 86.8988 467.69 85.8393 469.043 83.1792Z" fill="#EF929C"/>
<path opacity="0.58" d="M75.1466 26.804C74.9026 27.949 73.7766 28.678 72.6316 28.434C71.4866 28.189 70.7576 27.063 71.0016 25.919C71.2456 24.774 72.3716 24.045 73.5166 24.289C74.6606 24.533 75.3906 25.659 75.1466 26.804Z" fill="#EF929C"/>
<path opacity="0.58" d="M289.773 19.957C289.529 21.102 288.402 21.831 287.258 21.587C286.113 21.343 285.384 20.216 285.628 19.072C285.872 17.927 286.999 17.198 288.143 17.442C289.287 17.686 290.017 18.812 289.773 19.957Z" fill="#EF929C"/>
<path opacity="0.58" d="M438.644 86.502C438.436 87.475 437.479 88.095 436.506 87.887C435.533 87.679 434.913 86.722 435.121 85.749C435.329 84.776 436.286 84.156 437.259 84.364C438.231 84.572 438.852 85.529 438.644 86.502Z" fill="#3E479B"/>
<path opacity="0.58" d="M41.1008 396.909C40.8928 397.882 39.9358 398.502 38.9628 398.294C37.9898 398.086 37.3698 397.129 37.5778 396.156C37.7858 395.183 38.7428 394.563 39.7158 394.771C40.6888 394.979 41.3088 395.936 41.1008 396.909Z" fill="#3E479B"/>
<g opacity="0.66">
<path d="M371.123 208.384H363.317C360.041 208.384 357.375 205.718 357.375 202.441V193.66C357.375 192.014 356.334 190.526 354.784 189.958C353.862 189.62 352.944 189.239 352.055 188.827C350.536 188.123 348.73 188.431 347.566 189.596L341.357 195.805C340.235 196.928 338.742 197.546 337.155 197.546C335.567 197.546 334.075 196.928 332.952 195.805L327.432 190.286C325.116 187.969 325.116 184.198 327.432 181.881L333.642 175.672C334.806 174.507 335.115 172.703 334.411 171.182C333.997 170.286 333.616 169.368 333.281 168.452C332.712 166.903 331.224 165.862 329.578 165.862H320.798C317.521 165.862 314.855 163.196 314.855 159.919V152.113C314.855 148.836 317.521 146.17 320.798 146.17H329.578C331.225 146.17 332.713 145.129 333.281 143.58C333.617 142.663 333.998 141.745 334.411 140.851C335.115 139.33 334.807 137.525 333.642 136.361L327.432 130.151C325.116 127.834 325.116 124.064 327.432 121.746L332.952 116.226C335.267 113.909 339.04 113.908 341.357 116.226L347.566 122.436C348.73 123.601 350.534 123.91 352.055 123.205C352.952 122.79 353.87 122.41 354.785 122.075C356.334 121.507 357.375 120.018 357.375 118.372V109.591C357.375 106.314 360.041 103.648 363.317 103.648H371.123C374.4 103.648 377.066 106.314 377.066 109.591V118.372C377.066 120.018 378.107 121.506 379.657 122.075C380.571 122.41 381.49 122.79 382.385 123.205C383.906 123.91 385.711 123.601 386.875 122.436L393.084 116.226C395.4 113.909 399.173 113.908 401.489 116.226L407.009 121.746C409.325 124.063 409.325 127.833 407.009 130.151L400.799 136.361C399.634 137.526 399.325 139.33 400.031 140.85C400.444 141.745 400.825 142.663 401.161 143.58C401.729 145.129 403.218 146.17 404.864 146.17H413.644C416.921 146.17 419.587 148.836 419.587 152.113V159.919C419.587 163.196 416.921 165.862 413.644 165.862H404.864C403.217 165.862 401.73 166.903 401.161 168.452C400.826 169.367 400.445 170.285 400.032 171.181C399.326 172.702 399.635 174.507 400.8 175.672L407.01 181.881C409.326 184.198 409.326 187.968 407.01 190.286L401.49 195.805C400.367 196.928 398.875 197.546 397.287 197.546C395.7 197.546 394.207 196.928 393.085 195.805L386.876 189.596C385.712 188.431 383.907 188.123 382.386 188.827C381.497 189.239 380.579 189.619 379.658 189.958C378.108 190.526 377.067 192.014 377.067 193.66V202.441C377.066 205.718 374.4 208.384 371.123 208.384ZM350.36 186.454C351.218 186.454 352.085 186.637 352.895 187.013C353.735 187.402 354.602 187.761 355.473 188.08C357.806 188.936 359.374 191.179 359.374 193.66V202.441C359.374 204.615 361.143 206.384 363.316 206.384H371.122C373.297 206.384 375.065 204.615 375.065 202.441V193.66C375.065 191.178 376.633 188.936 378.966 188.08C379.837 187.761 380.704 187.401 381.543 187.013C383.822 185.958 386.534 186.427 388.288 188.182L394.497 194.392C396.035 195.93 398.538 195.928 400.074 194.392L405.593 188.873C407.13 187.335 407.13 184.833 405.593 183.296L399.383 177.086C397.627 175.33 397.158 172.619 398.214 170.341C398.605 169.496 398.964 168.628 399.281 167.764C400.136 165.43 402.38 163.862 404.861 163.862H413.641C415.816 163.862 417.584 162.093 417.584 159.919V152.113C417.584 149.939 415.815 148.17 413.641 148.17H404.861C402.379 148.17 400.136 146.602 399.281 144.269C398.963 143.403 398.603 142.536 398.214 141.691C397.157 139.414 397.627 136.703 399.383 134.947L405.593 128.737C407.129 127.199 407.129 124.698 405.593 123.16L400.074 117.64C398.537 116.102 396.034 116.104 394.497 117.64L388.288 123.85C386.533 125.606 383.821 126.075 381.543 125.019C380.697 124.628 379.83 124.268 378.967 123.952C376.633 123.096 375.065 120.853 375.065 118.371V109.59C375.065 107.416 373.297 105.647 371.122 105.647H363.316C361.142 105.647 359.374 107.416 359.374 109.59V118.371C359.374 120.853 357.806 123.095 355.473 123.952C354.609 124.268 353.742 124.628 352.895 125.019C350.62 126.075 347.907 125.606 346.151 123.849L339.942 117.639C338.405 116.101 335.902 116.103 334.365 117.639L328.845 123.159C327.309 124.697 327.309 127.198 328.845 128.736L335.055 134.946C336.81 136.701 337.28 139.412 336.224 141.691C335.834 142.535 335.475 143.402 335.157 144.268C334.302 146.601 332.058 148.169 329.577 148.169H320.797C318.622 148.169 316.854 149.938 316.854 152.112V159.918C316.854 162.092 318.623 163.861 320.797 163.861H329.577C332.059 163.861 334.302 165.429 335.157 167.763C335.474 168.627 335.834 169.494 336.225 170.341C337.28 172.619 336.81 175.329 335.055 177.085L328.845 183.295C327.308 184.832 327.308 187.334 328.845 188.872L334.365 194.391C335.901 195.927 338.404 195.928 339.942 194.391L346.151 188.181C347.281 187.052 348.809 186.454 350.36 186.454ZM367.221 183.467C352.085 183.467 339.771 171.153 339.771 156.017C339.771 140.881 352.086 128.567 367.221 128.567C382.357 128.567 394.671 140.881 394.671 156.017C394.671 171.153 382.356 183.467 367.221 183.467ZM367.221 130.567C353.188 130.567 341.771 141.984 341.771 156.017C341.771 170.05 353.188 181.467 367.221 181.467C381.254 181.467 392.671 170.05 392.671 156.017C392.671 141.984 381.254 130.567 367.221 130.567Z" fill="white"/>
<g opacity="0.84">
<path d="M356.59 351.073H346.852C344.55 351.073 342.497 349.634 341.705 347.473C341.338 346.472 340.931 345.491 340.486 344.531C339.511 342.427 339.921 339.941 341.561 338.302L348.447 331.415C350.588 329.274 350.588 325.803 348.447 323.662L342.326 317.541C340.185 315.4 336.714 315.4 334.573 317.541L327.687 324.428C326.047 326.068 323.562 326.478 321.457 325.503C320.497 325.058 319.515 324.651 318.515 324.284C316.354 323.492 314.915 321.438 314.915 319.137V309.399C314.915 306.371 312.461 303.917 309.433 303.917H300.776C297.748 303.917 295.294 306.371 295.294 309.399V319.137C295.294 321.439 293.855 323.492 291.694 324.284C290.693 324.651 289.712 325.058 288.751 325.503C286.647 326.478 284.162 326.068 282.522 324.428L275.635 317.541C273.494 315.4 270.023 315.4 267.882 317.541L261.761 323.662C259.62 325.803 259.62 329.274 261.761 331.415L268.648 338.302C270.288 339.942 270.698 342.427 269.723 344.531C269.278 345.491 268.871 346.473 268.504 347.473C267.711 349.634 265.658 351.073 263.357 351.073H253.619C250.591 351.073 248.137 353.527 248.137 356.555V365.212C248.137 368.24 250.591 370.694 253.619 370.694H263.357C265.659 370.694 267.712 372.133 268.504 374.294C268.871 375.295 269.278 376.276 269.723 377.237C270.698 379.341 270.288 381.826 268.648 383.466L261.761 390.352C259.62 392.493 259.62 395.964 261.761 398.105L267.882 404.226C270.023 406.367 273.494 406.367 275.635 404.226L282.522 397.339C284.162 395.699 286.647 395.289 288.751 396.264C289.711 396.709 290.693 397.116 291.693 397.483C293.854 398.275 295.293 400.329 295.293 402.63V412.368C295.293 415.396 297.747 417.85 300.775 417.85H309.432C312.46 417.85 314.914 415.396 314.914 412.368V402.63C314.914 400.328 316.353 398.275 318.514 397.483C319.515 397.116 320.496 396.709 321.456 396.264C323.56 395.289 326.045 395.699 327.685 397.339L334.572 404.226C336.713 406.367 340.184 406.367 342.325 404.226L348.446 398.105C350.587 395.964 350.587 392.493 348.446 390.352L341.56 383.466C339.92 381.826 339.51 379.341 340.485 377.237C340.93 376.277 341.337 375.295 341.704 374.294C342.497 372.133 344.55 370.694 346.851 370.694H356.589C359.617 370.694 362.071 368.24 362.071 365.212V356.555C362.072 353.528 359.618 351.073 356.59 351.073ZM305.105 390.217C288.905 390.217 275.772 377.084 275.772 360.884C275.772 344.684 288.905 331.551 305.105 331.551C321.305 331.551 334.438 344.684 334.438 360.884C334.439 377.084 321.306 390.217 305.105 390.217Z" fill="white"/>
</g>
<path d="M204.288 409.396H197.731C194.89 409.396 192.578 407.085 192.578 404.244V396.868C192.578 395.552 191.745 394.362 190.507 393.907C189.734 393.625 188.958 393.303 188.203 392.953C186.986 392.39 185.543 392.637 184.612 393.567L179.396 398.783C178.423 399.757 177.129 400.293 175.753 400.293C174.377 400.293 173.083 399.757 172.109 398.783L167.473 394.146C166.5 393.173 165.964 391.879 165.964 390.503C165.964 389.127 166.5 387.833 167.473 386.86L172.689 381.644C173.62 380.712 173.867 379.27 173.303 378.053C172.955 377.301 172.634 376.527 172.348 375.748C171.894 374.509 170.704 373.676 169.388 373.676H162.011C159.17 373.676 156.859 371.364 156.859 368.524V361.967C156.859 359.126 159.171 356.815 162.011 356.815H169.388C170.704 356.815 171.893 355.983 172.347 354.744C172.635 353.961 172.956 353.185 173.302 352.439C173.866 351.222 173.619 349.779 172.688 348.848L167.472 343.631C166.499 342.658 165.963 341.364 165.963 339.988C165.963 338.612 166.499 337.318 167.472 336.344L172.108 331.707C174.117 329.699 177.386 329.699 179.395 331.707L184.611 336.924C185.542 337.855 186.984 338.103 188.202 337.537C188.948 337.191 189.723 336.871 190.507 336.583C191.746 336.128 192.578 334.938 192.578 333.623V326.246C192.578 323.405 194.889 321.094 197.731 321.094H204.288C207.129 321.094 209.44 323.406 209.44 326.246V333.623C209.44 334.939 210.272 336.128 211.512 336.583C212.296 336.871 213.071 337.191 213.816 337.537C215.034 338.102 216.476 337.854 217.407 336.924L222.623 331.707C224.632 329.699 227.9 329.699 229.909 331.707L234.546 336.344C235.519 337.318 236.055 338.612 236.055 339.988C236.055 341.364 235.519 342.658 234.546 343.631L229.33 348.848C228.399 349.779 228.152 351.222 228.716 352.44C229.063 353.185 229.384 353.961 229.671 354.745C230.126 355.983 231.315 356.815 232.631 356.815H240.007C242.848 356.815 245.159 359.126 245.159 361.967V368.524C245.159 371.365 242.847 373.676 240.007 373.676H232.631C231.315 373.676 230.126 374.509 229.671 375.748C229.385 376.525 229.064 377.302 228.716 378.053C228.152 379.27 228.399 380.712 229.33 381.644L234.546 386.86C235.519 387.834 236.055 389.128 236.055 390.503C236.055 391.879 235.519 393.173 234.546 394.146L229.909 398.783C228.936 399.757 227.642 400.293 226.266 400.293C224.89 400.293 223.596 399.757 222.623 398.783L217.407 393.567C216.476 392.636 215.032 392.39 213.816 392.953C213.058 393.305 212.282 393.625 211.511 393.908C210.273 394.362 209.44 395.552 209.44 396.868V404.244C209.44 407.084 207.129 409.396 204.288 409.396ZM186.848 390.654C187.591 390.654 188.341 390.812 189.044 391.137C189.75 391.464 190.474 391.764 191.196 392.028C193.219 392.771 194.579 394.716 194.579 396.867V404.243C194.579 405.981 195.994 407.395 197.732 407.395H204.289C206.027 407.395 207.441 405.981 207.441 404.243V396.867C207.441 394.716 208.8 392.771 210.823 392.029C211.544 391.765 212.268 391.465 212.976 391.137C214.952 390.224 217.302 390.631 218.822 392.152L224.038 397.368C225.229 398.559 227.305 398.559 228.496 397.368L233.133 392.731C233.728 392.135 234.056 391.344 234.056 390.502C234.056 389.66 233.728 388.868 233.133 388.273L227.917 383.057C226.395 381.536 225.987 379.186 226.902 377.211C227.227 376.509 227.527 375.785 227.794 375.059C228.537 373.035 230.481 371.675 232.632 371.675H240.008C241.746 371.675 243.16 370.261 243.16 368.523V361.966C243.16 360.228 241.746 358.814 240.008 358.814H232.632C230.481 358.814 228.537 357.455 227.794 355.432C227.526 354.701 227.226 353.977 226.903 353.28C225.988 351.304 226.396 348.955 227.917 347.433L233.133 342.216C233.728 341.62 234.056 340.829 234.056 339.988C234.056 339.147 233.728 338.354 233.133 337.758L228.496 333.121C227.267 331.892 225.267 331.892 224.038 333.121L218.822 338.338C217.301 339.86 214.951 340.268 212.975 339.352C212.28 339.03 211.555 338.73 210.823 338.46C208.8 337.718 207.441 335.774 207.441 333.623V326.246C207.441 324.508 206.027 323.094 204.289 323.094H197.732C195.994 323.094 194.579 324.508 194.579 326.246V333.623C194.579 335.774 193.22 337.718 191.197 338.46C190.465 338.73 189.74 339.029 189.044 339.352C187.068 340.268 184.719 339.861 183.198 338.338L177.982 333.121C176.753 331.892 174.752 331.892 173.523 333.121L168.887 337.758C168.292 338.354 167.964 339.146 167.964 339.988C167.964 340.83 168.292 341.621 168.887 342.216L174.103 347.433C175.624 348.955 176.032 351.304 175.117 353.279C174.794 353.976 174.494 354.701 174.225 355.432C173.484 357.455 171.539 358.814 169.388 358.814H162.011C160.273 358.814 158.859 360.228 158.859 361.966V368.523C158.859 370.261 160.273 371.675 162.011 371.675H169.388C171.539 371.675 173.483 373.034 174.225 375.058C174.492 375.785 174.792 376.509 175.117 377.211C176.033 379.186 175.625 381.535 174.103 383.057L168.887 388.273C168.292 388.869 167.964 389.661 167.964 390.502C167.964 391.343 168.292 392.135 168.887 392.731L173.523 397.368C174.714 398.558 176.79 398.56 177.982 397.368L183.198 392.152C184.178 391.172 185.501 390.654 186.848 390.654ZM201.01 388.464C188.207 388.464 177.791 378.048 177.791 365.245C177.791 352.442 188.207 342.026 201.01 342.026C213.813 342.026 224.229 352.442 224.229 365.245C224.228 378.048 213.812 388.464 201.01 388.464ZM201.01 344.026C189.31 344.026 179.791 353.544 179.791 365.245C179.791 376.945 189.31 386.464 201.01 386.464C212.71 386.464 222.229 376.945 222.229 365.245C222.228 353.545 212.71 344.026 201.01 344.026Z" fill="white"/>
</g>
<g opacity="0.81">
<path d="M416.432 300.922H403.396C402.843 300.922 402.396 300.475 402.396 299.922C402.396 299.369 402.843 298.922 403.396 298.922H416.432C416.985 298.922 417.432 299.369 417.432 299.922C417.432 300.475 416.984 300.922 416.432 300.922Z" fill="white"/>
<path d="M416.432 322.404H403.396C402.843 322.404 402.396 321.957 402.396 321.404C402.396 320.851 402.843 320.404 403.396 320.404H416.432C416.985 320.404 417.432 320.851 417.432 321.404C417.432 321.957 416.984 322.404 416.432 322.404Z" fill="white"/>
<path d="M425.647 344.1H346.383C344.888 344.1 343.671 342.883 343.671 341.388V275.119C343.671 273.624 344.888 272.408 346.383 272.408H425.647C427.142 272.408 428.359 273.624 428.359 275.119V341.388C428.359 342.883 427.143 344.1 425.647 344.1ZM346.384 274.408C345.991 274.408 345.672 274.727 345.672 275.119V341.388C345.672 341.781 345.991 342.1 346.384 342.1H425.648C426.041 342.1 426.36 341.781 426.36 341.388V275.119C426.36 274.727 426.041 274.408 425.648 274.408H346.384Z" fill="white"/>
<path opacity="0.66" d="M425.647 344.1H346.383C344.888 344.1 343.671 342.883 343.671 341.388V275.119C343.671 273.624 344.888 272.408 346.383 272.408H425.647C427.142 272.408 428.359 273.624 428.359 275.119V341.388C428.359 342.883 427.143 344.1 425.647 344.1ZM346.384 274.408C345.991 274.408 345.672 274.727 345.672 275.119V341.388C345.672 341.781 345.991 342.1 346.384 342.1H425.648C426.041 342.1 426.36 341.781 426.36 341.388V275.119C426.36 274.727 426.041 274.408 425.648 274.408H346.384Z" fill="white"/>
<path d="M416.433 290.496H354.31C353.757 290.496 353.31 290.049 353.31 289.496C353.31 288.943 353.757 288.496 354.31 288.496H416.433C416.986 288.496 417.433 288.943 417.433 289.496C417.433 290.049 416.985 290.496 416.433 290.496Z" fill="white"/>
<path d="M416.433 311.347H354.31C353.757 311.347 353.31 310.9 353.31 310.347C353.31 309.794 353.757 309.347 354.31 309.347H416.433C416.986 309.347 417.433 309.794 417.433 310.347C417.433 310.899 416.985 311.347 416.433 311.347Z" fill="white"/>
<path d="M387.803 300.922H354.31C353.757 300.922 353.31 300.475 353.31 299.922C353.31 299.369 353.757 298.922 354.31 298.922H387.803C388.356 298.922 388.803 299.369 388.803 299.922C388.803 300.475 388.355 300.922 387.803 300.922Z" fill="white"/>
<path d="M387.803 322.404H354.31C353.757 322.404 353.31 321.957 353.31 321.404C353.31 320.851 353.757 320.404 354.31 320.404H387.803C388.356 320.404 388.803 320.851 388.803 321.404C388.803 321.957 388.355 322.404 387.803 322.404Z" fill="white"/>
<path d="M376.897 332.356H354.309C353.756 332.356 353.309 331.909 353.309 331.356C353.309 330.803 353.756 330.356 354.309 330.356H376.897C377.45 330.356 377.897 330.803 377.897 331.356C377.897 331.909 377.45 332.356 376.897 332.356Z" fill="white"/>
</g>
<g opacity="0.81">
<path d="M162.798 191.56H148.007C147.455 191.56 147.007 191.112 147.007 190.56C147.007 190.008 147.455 189.56 148.007 189.56H162.798C163.35 189.56 163.798 190.008 163.798 190.56C163.798 191.112 163.35 191.56 162.798 191.56Z" fill="white"/>
<path d="M162.798 215.933H148.007C147.455 215.933 147.007 215.485 147.007 214.933C147.007 214.381 147.455 213.933 148.007 213.933H162.798C163.35 213.933 163.798 214.381 163.798 214.933C163.798 215.485 163.35 215.933 162.798 215.933Z" fill="white"/>
<path d="M173.484 240.546H83.0953C81.6003 240.546 80.3843 239.33 80.3843 237.835V162.19C80.3843 160.695 81.6003 159.479 83.0953 159.479H173.484C174.979 159.479 176.195 160.695 176.195 162.19V237.835C176.195 239.33 174.979 240.546 173.484 240.546ZM83.0953 161.479C82.7033 161.479 82.3843 161.798 82.3843 162.19V237.835C82.3843 238.227 82.7033 238.546 83.0953 238.546H173.484C173.876 238.546 174.195 238.227 174.195 237.835V162.19C174.195 161.798 173.876 161.479 173.484 161.479H83.0953Z" fill="white"/>
<path opacity="0.66" d="M173.484 240.546H83.0953C81.6003 240.546 80.3843 239.33 80.3843 237.835V162.19C80.3843 160.695 81.6003 159.479 83.0953 159.479H173.484C174.979 159.479 176.195 160.695 176.195 162.19V237.835C176.195 239.33 174.979 240.546 173.484 240.546ZM83.0953 161.479C82.7033 161.479 82.3843 161.798 82.3843 162.19V237.835C82.3843 238.227 82.7033 238.546 83.0953 238.546H173.484C173.876 238.546 174.195 238.227 174.195 237.835V162.19C174.195 161.798 173.876 161.479 173.484 161.479H83.0953Z" fill="white"/>
<path d="M162.798 179.731H92.3174C91.7654 179.731 91.3174 179.283 91.3174 178.731C91.3174 178.179 91.7654 177.731 92.3174 177.731H162.798C163.35 177.731 163.798 178.179 163.798 178.731C163.798 179.283 163.35 179.731 162.798 179.731Z" fill="white"/>
<path d="M162.798 203.388H92.3174C91.7654 203.388 91.3174 202.94 91.3174 202.388C91.3174 201.836 91.7654 201.388 92.3174 201.388H162.798C163.35 201.388 163.798 201.836 163.798 202.388C163.798 202.94 163.35 203.388 162.798 203.388Z" fill="white"/>
<path d="M130.316 191.56H92.3174C91.7654 191.56 91.3174 191.112 91.3174 190.56C91.3174 190.008 91.7654 189.56 92.3174 189.56H130.316C130.868 189.56 131.316 190.008 131.316 190.56C131.316 191.112 130.868 191.56 130.316 191.56Z" fill="white"/>
<path d="M130.316 215.933H92.3174C91.7654 215.933 91.3174 215.485 91.3174 214.933C91.3174 214.381 91.7654 213.933 92.3174 213.933H130.316C130.868 213.933 131.316 214.381 131.316 214.933C131.316 215.485 130.868 215.933 130.316 215.933Z" fill="white"/>
<path d="M117.943 227.224H92.3174C91.7654 227.224 91.3174 226.776 91.3174 226.224C91.3174 225.672 91.7654 225.224 92.3174 225.224H117.944C118.496 225.224 118.944 225.672 118.944 226.224C118.943 226.776 118.496 227.224 117.943 227.224Z" fill="white"/>
</g>
<path d="M423.193 158.019H415.307H383.623H378.245C376.235 158.019 374.446 159.487 373.786 161.677L372.297 166.617C371.637 168.807 369.848 170.275 367.838 170.275H303.492C300.885 170.275 298.771 172.714 298.771 175.723V248.576C298.771 251.585 300.885 254.024 303.492 254.024H303.811H415.306H423.192C425.976 254.024 428.232 251.585 428.232 248.576V181.51V170.276V163.468C428.234 160.458 425.977 158.019 423.193 158.019Z" fill="#3E479B"/>
<path d="M377.273 171.043L378.863 166.103C379.568 163.913 381.478 162.445 383.624 162.445H423.194C425.978 162.445 428.234 164.884 428.234 167.893V174.701V185.935V253.001C428.234 256.01 425.977 258.449 423.194 258.449H303.812C301.028 258.449 298.772 256.01 298.772 253.001V180.148C298.772 177.139 301.029 174.7 303.812 174.7H372.512C374.658 174.701 376.568 173.233 377.273 171.043Z" fill="#6D6CD4"/>
<path opacity="0.12" d="M380.2 176.064L381.698 171.408C382.362 169.344 384.163 167.96 386.185 167.96H423.482C426.106 167.96 428.233 170.259 428.233 173.095V179.512V190.1V253.314C428.233 256.15 426.106 258.449 423.482 258.449H310.958C308.334 258.449 306.207 256.15 306.207 253.314V184.646C306.207 181.81 308.334 179.511 310.958 179.511H375.712C377.735 179.511 379.535 178.128 380.2 176.064Z" fill="white"/>
<path d="M414.595 252.308H385.066C384.513 252.308 384.066 251.861 384.066 251.308C384.066 250.756 384.513 250.308 385.066 250.308H414.595C416.5 250.308 418.05 248.758 418.05 246.852V223.426C418.05 222.874 418.497 222.426 419.05 222.426C419.603 222.426 420.05 222.874 420.05 223.426V246.852C420.05 249.86 417.602 252.308 414.595 252.308Z" fill="white"/>
<path d="M70.6282 240.875H78.5652H110.454H115.866C117.888 240.875 119.689 242.526 120.354 244.99L121.853 250.547C122.517 253.011 124.318 254.662 126.341 254.662H191.102C193.726 254.662 195.853 257.406 195.853 260.79V342.742C195.853 346.126 193.726 348.87 191.102 348.87H190.78H78.5642H70.6272C67.8252 348.87 65.5542 346.126 65.5542 342.742V267.3V254.663V247.004C65.5552 243.618 67.8262 240.875 70.6282 240.875Z" fill="#F28393"/>
<path opacity="0.12" d="M116.845 255.526L115.245 249.969C114.536 247.505 112.613 245.854 110.454 245.854H70.6282C67.8262 245.854 65.5552 248.598 65.5552 251.982V259.64V272.278V347.72C65.5552 351.104 67.8262 353.848 70.6282 353.848H190.779C193.581 353.848 195.852 351.104 195.852 347.72V265.769C195.852 262.385 193.581 259.641 190.779 259.641H121.636C119.477 259.641 117.554 257.99 116.845 255.526Z" fill="white"/>
<path opacity="0.12" d="M113.899 261.173L112.391 255.935C111.722 253.613 109.91 252.057 107.875 252.057H70.3362C67.6952 252.057 65.5542 254.643 65.5542 257.833V265.052V276.964V348.073C65.5542 351.263 67.6952 353.849 70.3362 353.849H183.586C186.227 353.849 188.368 351.263 188.368 348.073V270.828C188.368 267.638 186.227 265.052 183.586 265.052H118.414C116.38 265.052 114.567 263.495 113.899 261.173Z" fill="white"/>
<path d="M74.7983 276.053C74.3043 276.053 73.9033 275.606 73.9033 275.053V261.172C73.9033 259.292 75.2713 257.763 76.9533 257.763H95.5973C96.0913 257.763 96.4923 258.21 96.4923 258.763C96.4923 259.316 96.0913 259.763 95.5973 259.763H76.9543C76.2593 259.763 75.6933 260.395 75.6933 261.172V275.053C75.6933 275.606 75.2923 276.053 74.7983 276.053Z" fill="white"/>
<path d="M316.982 197.876H188.473C167.133 197.876 149.833 180.576 149.833 159.236C149.833 137.896 167.133 120.596 188.473 120.596H316.981C338.321 120.596 355.621 137.896 355.621 159.236C355.622 180.576 338.322 197.876 316.982 197.876Z" fill="#C5D9FF"/>
<path d="M252.728 180.847C282.741 180.847 307.071 156.517 307.071 126.504C307.071 96.4912 282.741 72.161 252.728 72.161C222.715 72.161 198.385 96.4912 198.385 126.504C198.385 156.517 222.715 180.847 252.728 180.847Z" fill="#599AF2"/>
<path d="M316.982 186.492H188.473C167.133 186.492 149.833 169.192 149.833 147.852C149.833 126.512 167.133 109.212 188.473 109.212H316.981C338.321 109.212 355.621 126.512 355.621 147.852C355.622 169.192 338.322 186.492 316.982 186.492Z" fill="#599AF2"/>
<path d="M274.237 165.026C301.801 153.149 314.518 121.177 302.642 93.6134C290.766 66.0496 258.794 53.3323 231.23 65.2083C203.666 77.0844 190.949 109.057 202.825 136.62C214.701 164.184 246.673 176.902 274.237 165.026Z" fill="#599AF2"/>
<g opacity="0.35">
<path d="M316.982 186.492H188.473C167.133 186.492 149.833 169.192 149.833 147.852C149.833 126.512 167.133 109.212 188.473 109.212H316.981C338.321 109.212 355.621 126.512 355.621 147.852C355.622 169.192 338.322 186.492 316.982 186.492Z" fill="#ECF1F7"/>
<path d="M274.237 165.026C301.801 153.149 314.518 121.177 302.642 93.6134C290.766 66.0496 258.794 53.3323 231.23 65.2083C203.666 77.0844 190.949 109.057 202.825 136.62C214.701 164.184 246.673 176.902 274.237 165.026Z" fill="#ECF1F7"/>
</g>
<path d="M240.019 123.209C239.372 123.209 238.726 122.959 238.236 122.461C237.268 121.477 237.281 119.894 238.266 118.926L252.849 104.589L267.202 118.941C268.179 119.917 268.179 121.5 267.202 122.476C266.225 123.453 264.643 123.453 263.667 122.476L252.82 111.63L241.771 122.491C241.285 122.97 240.652 123.209 240.019 123.209Z" fill="white"/>
<path d="M252.727 143.092C251.346 143.092 250.227 141.973 250.227 140.592V108.109C250.227 106.728 251.346 105.609 252.727 105.609C254.108 105.609 255.227 106.728 255.227 108.109V140.592C255.227 141.973 254.108 143.092 252.727 143.092Z" fill="white"/>
<path d="M276.358 158.517H228.723C225.309 158.517 222.53 155.739 222.53 152.324V135.018C222.53 133.637 223.649 132.518 225.03 132.518C226.411 132.518 227.53 133.637 227.53 135.018V152.324C227.53 152.982 228.065 153.517 228.723 153.517H276.358C277.221 153.517 277.924 152.814 277.924 151.951V135.019C277.924 133.638 279.043 132.519 280.424 132.519C281.805 132.519 282.924 133.638 282.924 135.019V151.951C282.925 155.571 279.979 158.517 276.358 158.517Z" fill="white"/>
<path opacity="0.36" d="M328.322 323.934L191.998 368.975C188.664 370.076 185.069 368.267 183.967 364.933L138.926 228.608C137.824 225.274 139.634 221.679 142.968 220.577L279.292 175.536C282.626 174.434 286.221 176.244 287.323 179.578L332.364 315.902C333.466 319.237 331.656 322.832 328.322 323.934Z" fill="#4C65BA"/>
<path d="M318.303 318.891L181.978 363.932C178.644 365.034 175.049 363.224 173.947 359.89L128.906 223.566C127.805 220.232 129.614 216.637 132.948 215.535L269.272 170.494C272.606 169.392 276.201 171.202 277.303 174.536L322.344 310.861C323.446 314.194 321.636 317.789 318.303 318.891Z" fill="white"/>
<path d="M266.754 185.342L143.635 226.019L184.311 349.137L307.43 308.461L266.754 185.342Z" fill="#C5D9FF"/>
<path opacity="0.47" d="M183.273 350.184L174.064 322.309L187.535 289.839C189.4 285.345 194.31 283.043 198.959 284.486L223.895 292.231C225.369 292.691 226.954 292.085 227.748 290.762L248.509 256.209C252.918 248.87 262.175 245.887 270.039 249.271L292.904 259.107L293.115 259.748L309.243 308.565L307.819 309.035L183.273 350.184ZM177.262 322.428L185.181 346.395L305.454 306.657L290.478 261.331L268.853 252.027C262.358 249.232 254.719 251.697 251.08 257.755L230.319 292.308C228.811 294.819 225.805 295.968 223.005 295.097L198.069 287.352C194.91 286.371 191.573 287.935 190.305 290.991L177.262 322.428Z" fill="white"/>
<path opacity="0.47" d="M224.379 254.176C217.681 254.176 211.429 249.922 209.215 243.223C206.455 234.868 211.006 225.825 219.361 223.065C227.715 220.308 236.758 224.856 239.519 233.211C242.279 241.566 237.728 250.609 229.374 253.369C227.718 253.916 226.035 254.176 224.379 254.176ZM224.358 225.258C223.013 225.258 221.648 225.469 220.303 225.913C213.519 228.154 209.823 235.497 212.065 242.281C214.306 249.066 221.651 252.761 228.433 250.519C235.217 248.278 238.913 240.935 236.671 234.151C234.874 228.712 229.796 225.258 224.358 225.258Z" fill="white"/>
<path opacity="0.36" d="M369.362 348.479H262.936C259.425 348.479 256.579 345.633 256.579 342.122V235.696C256.579 232.185 259.425 229.339 262.936 229.339H369.362C372.873 229.339 375.719 232.185 375.719 235.696V342.122C375.719 345.633 372.873 348.479 369.362 348.479Z" fill="#4C65BA"/>
<path d="M363.315 342.432H256.889C253.378 342.432 250.532 339.586 250.532 336.075V229.649C250.532 226.138 253.378 223.292 256.889 223.292H363.315C366.826 223.292 369.672 226.138 369.672 229.649V336.075C369.672 339.586 366.826 342.432 363.315 342.432Z" fill="white"/>
<path opacity="0.39" d="M359.457 233.438H260.61V332.286H359.457V233.438Z" fill="#F7A9B4"/>
<path opacity="0.47" d="M361.095 333.147H259.247V310.28L276.849 289.897C279.398 286.95 283.708 286.436 286.877 288.698L303.073 300.267C303.894 300.854 305.006 300.805 305.773 300.145L329.064 280.1C334.145 275.725 341.762 275.782 346.777 280.231L361.094 292.925V333.147H361.095ZM262.247 330.147H358.095V294.275L344.787 282.475C340.889 279.019 334.971 278.974 331.021 282.373L307.73 302.418C305.913 303.981 303.282 304.103 301.33 302.708L285.133 291.139C283.232 289.782 280.646 290.092 279.119 291.858L262.247 311.395V330.147Z" fill="white"/>
<path opacity="0.47" d="M316.126 274.094C309.222 274.094 303.605 268.478 303.605 261.573C303.605 254.669 309.221 249.052 316.126 249.052C323.03 249.052 328.647 254.669 328.647 261.573C328.647 268.478 323.03 274.094 316.126 274.094ZM316.126 252.052C310.876 252.052 306.605 256.323 306.605 261.573C306.605 266.823 310.876 271.094 316.126 271.094C321.376 271.094 325.647 266.823 325.647 261.573C325.647 256.323 321.376 252.052 316.126 252.052Z" fill="white"/>
<path opacity="0.36" d="M293.386 358.686L233.223 381.228C229.935 382.46 226.271 380.793 225.039 377.505L202.497 317.342C201.265 314.054 202.932 310.39 206.22 309.158L266.383 286.616C269.671 285.384 273.335 287.051 274.567 290.339L297.109 350.502C298.34 353.791 296.674 357.455 293.386 358.686Z" fill="#4C65BA"/>
<path d="M288.358 356.399L228.195 378.941C224.907 380.173 221.243 378.506 220.011 375.218L197.469 315.055C196.237 311.767 197.904 308.103 201.192 306.871L261.355 284.329C264.643 283.097 268.307 284.764 269.539 288.052L292.081 348.215C293.312 351.504 291.645 355.167 288.358 356.399Z" fill="white"/>
<path d="M263.431 290.536L203.639 312.942L226.045 372.734L285.837 350.328L263.431 290.536Z" fill="#599AF2"/>
<path opacity="0.47" d="M225.098 374.264L219.659 359.748L225.756 343.244C226.724 340.624 229.488 339.196 232.185 339.917L244.605 343.244C244.998 343.349 245.411 343.174 245.607 342.816L255.152 325.411C257.361 321.383 262.262 319.59 266.553 321.235L278.314 325.755L287.7 350.807L225.098 374.264ZM222.86 359.74L226.855 370.402L283.839 349.05L275.979 328.07L265.478 324.035C262.581 322.922 259.274 324.134 257.784 326.853L248.238 344.257C247.376 345.83 245.563 346.606 243.829 346.141L231.409 342.814C230.219 342.49 228.998 343.126 228.571 344.282L222.86 359.74Z" fill="white"/>
<path opacity="0.47" d="M243.603 326.012C240.11 326.012 236.817 323.874 235.521 320.417C233.854 315.966 236.118 310.988 240.568 309.321C245.016 307.652 249.995 309.917 251.664 314.368C253.331 318.818 251.067 323.796 246.617 325.464C245.625 325.836 244.606 326.012 243.603 326.012ZM243.587 311.772C242.933 311.772 242.269 311.887 241.622 312.129C238.721 313.217 237.244 316.462 238.331 319.363C239.418 322.264 242.663 323.74 245.565 322.654C248.466 321.566 249.943 318.321 248.855 315.42C248.011 313.167 245.863 311.772 243.587 311.772Z" fill="white"/>
</svg>
